# Blender v2.78 (sub 0) OBJ File: 'floor1.blend'
# www.blender.org
mtllib floor1.mtl
o arch_Cube.009
v -4.000000 0.000000 9.999998
v -4.000000 6.000000 9.999998
v -4.000000 0.000000 -10.000000
v -4.000000 6.000000 -10.000000
v -4.000000 0.000000 9.999998
v 4.000000 0.000000 9.999998
v -4.000000 0.000000 -10.000000
v 4.000000 0.000000 -10.000000
v 4.000000 6.000000 9.999998
v 4.000000 0.000000 9.999998
v 4.000000 6.000000 -10.000000
v 4.000000 0.000000 -10.000000
v 4.000000 0.000000 -10.000000
v 4.000000 0.000000 -8.000000
v 3.000000 0.000000 -8.000001
v 3.000000 0.000000 -10.000001
v 4.000000 6.000000 -10.000000
v 4.000000 6.000000 -8.000000
v 3.000000 6.000000 -8.000001
v 3.000000 6.000000 -10.000000
v 3.000000 4.500000 -10.000000
v 3.000000 4.500000 -8.000000
v -3.000001 4.500000 -8.000001
v -2.999999 4.500000 -10.000001
v 3.000001 6.000000 -10.000000
v 2.999998 6.000000 -8.000000
v -3.000001 6.000000 -8.000001
v -3.000000 6.000000 -10.000000
v -3.000000 0.000000 -10.000000
v -3.000000 0.000000 -8.000000
v -4.000000 0.000000 -8.000000
v -4.000000 0.000000 -10.000000
v -3.000000 6.000000 -9.999999
v -3.000000 6.000000 -8.000000
v -4.000000 6.000000 -8.000000
v -4.000000 6.000000 -10.000000
v 4.000000 0.000000 7.999998
v 4.000000 0.000000 9.999998
v 3.000000 0.000000 9.999998
v 3.000000 0.000000 7.999998
v 4.000000 6.000000 7.999998
v 3.999999 6.000000 9.999998
v 3.000000 6.000000 9.999998
v 3.000000 6.000000 7.999998
v 3.000000 4.500000 7.999998
v 3.000000 4.500000 9.999998
v -3.000001 4.500000 9.999998
v -3.000000 4.500000 7.999998
v 3.000001 6.000000 7.999998
v 2.999998 6.000000 9.999998
v -3.000001 6.000000 9.999998
v -3.000000 6.000000 7.999998
v -3.000000 0.000000 7.999998
v -3.000000 0.000000 9.999998
v -4.000000 0.000000 9.999998
v -4.000000 0.000000 7.999998
v -3.000000 6.000000 7.999998
v -3.000000 6.000000 9.999998
v -4.000000 6.000000 9.999998
v -4.000000 6.000000 7.999998
vt 0.6923 0.7692
vt 0.7692 0.0000
vt 0.7692 0.7692
vt 0.6154 0.0000
vt 0.0000 0.7692
vt 0.0000 0.0000
vt 0.6923 0.0000
vt 0.6154 0.7692
vt 0.6154 0.0000
vt 0.7692 0.8462
vt 0.6923 0.9231
vt 0.6923 0.8462
vt 0.0769 1.0000
vt 0.0000 0.9231
vt 0.0769 0.9231
vt 0.2308 0.8462
vt 0.1538 0.7692
vt 0.2308 0.7692
vt 0.5385 0.9231
vt 0.6154 0.8462
vt 0.6154 0.9231
vt 0.0769 0.8462
vt 0.1538 0.7692
vt 0.1538 0.8462
vt 0.5385 0.9231
vt 0.4615 0.8462
vt 0.5385 0.8462
vt 0.9231 0.4615
vt 1.0000 0.0000
vt 1.0000 0.4615
vt 0.9231 0.4615
vt 0.8462 0.0000
vt 0.9231 0.0000
vt 0.8654 0.4615
vt 0.8462 0.5385
vt 0.8462 0.4615
vt 0.9038 0.4615
vt 0.8846 0.9231
vt 0.8846 0.4615
vt 0.8654 0.6923
vt 0.8462 0.6154
vt 0.8654 0.6154
vt 0.8846 0.4615
vt 0.8654 0.9231
vt 1.0000 0.0000
vt 0.0000 1.0000
vt 0.0000 0.0000
vt 0.0769 0.9231
vt 0.0000 0.8462
vt 0.0769 0.8462
vt 1.0000 0.0000
vt 0.0000 1.0000
vt 0.0769 0.8462
vt 0.1538 0.9231
vt 0.0769 0.9231
vt 0.5385 0.8462
vt 0.6154 0.7692
vt 0.6154 0.8462
vt 1.0000 0.0000
vt 0.0000 1.0000
vt 0.0000 0.0000
vt 0.6923 0.9231
vt 0.6154 0.8462
vt 0.6923 0.8462
vt 0.3077 0.8462
vt 0.2308 0.7692
vt 0.3077 0.7692
vt 0.6923 0.8462
vt 0.7692 0.7692
vt 0.7692 0.8462
vt 0.3846 0.8462
vt 0.4615 0.9231
vt 0.3846 0.9231
vt 0.3077 0.8462
vt 0.3846 0.7692
vt 0.3846 0.8462
vt 0.0769 0.8462
vt 0.0000 0.7692
vt 0.0769 0.7692
vt 0.7692 0.4615
vt 0.8462 0.0000
vt 0.8462 0.4615
vt 0.8462 0.9231
vt 0.7692 0.4615
vt 0.8462 0.4615
vt 0.8462 0.6154
vt 0.8654 0.5385
vt 0.8654 0.6154
vt 0.9038 0.9231
vt 0.9231 0.4615
vt 0.9231 0.9231
vt 0.8654 0.7692
vt 0.8462 0.6923
vt 0.8654 0.6923
vt 0.9231 0.4615
vt 0.9423 0.9231
vt 0.9231 0.9231
vt 0.3846 0.9231
vt 0.3077 0.8462
vt 0.3846 0.8462
vt 0.6154 0.8462
vt 0.6923 0.7692
vt 0.6923 0.8462
vt 0.3077 0.8462
vt 0.2308 0.9231
vt 0.2308 0.8462
vt 0.4615 0.7692
vt 0.5385 0.8462
vt 0.4615 0.8462
vt 0.1538 0.9231
vt 0.2308 0.8462
vt 0.2308 0.9231
vt 0.4615 0.7692
vt 0.3846 0.8462
vt 0.3846 0.7692
vt 0.6923 0.0000
vt 0.6154 0.7692
vt 0.6923 0.7692
vt 0.7692 0.9231
vt 0.0000 1.0000
vt 0.1538 0.8462
vt 0.5385 0.8462
vt 0.0769 0.7692
vt 0.4615 0.9231
vt 0.9231 0.0000
vt 0.8462 0.4615
vt 0.8654 0.5385
vt 0.9038 0.9231
vt 0.8462 0.6923
vt 0.8846 0.9231
vt 1.0000 1.0000
vt 0.0000 0.9231
vt 1.0000 1.0000
vt 0.1538 0.8462
vt 0.5385 0.7692
vt 1.0000 1.0000
vt 0.6154 0.9231
vt 0.2308 0.8462
vt 0.6923 0.7692
vt 0.4615 0.8462
vt 0.3077 0.7692
vt 0.0000 0.8462
vt 0.7692 0.0000
vt 0.7692 0.9231
vt 0.8462 0.5385
vt 0.9038 0.4615
vt 0.8462 0.7692
vt 0.9423 0.4615
vt 0.3077 0.9231
vt 0.6154 0.7692
vt 0.3077 0.9231
vt 0.5385 0.7692
vt 0.1538 0.8462
vt 0.4615 0.8462
vn -1.0000 0.0000 0.0000
vn 0.0000 1.0000 0.0000
vn 1.0000 0.0000 0.0000
vn 0.0000 -1.0000 0.0000
vn 0.0000 -0.0000 1.0000
vn 0.0000 0.0000 -1.0000
usemtl Material.008
s off
f 2/1/1 3/2/1 1/3/1
f 6/4/2 7/5/2 5/6/2
f 10/7/3 11/8/3 9/9/3
f 13/10/4 15/11/4 16/12/4
f 17/13/2 19/14/2 18/15/2
f 17/16/3 14/17/3 13/18/3
f 18/19/5 15/20/5 14/21/5
f 19/22/1 16/23/1 15/24/1
f 13/25/6 20/26/6 17/27/6
f 22/28/4 24/29/4 21/30/4
f 28/31/2 26/32/2 25/33/2
f 25/34/3 22/35/3 21/36/3
f 26/37/5 23/38/5 22/39/5
f 23/40/1 28/41/1 24/42/1
f 21/43/6 28/44/6 25/34/6
f 30/45/4 32/46/4 29/47/4
f 36/48/2 34/49/2 33/50/2
f 33/51/3 30/52/3 29/47/3
f 34/53/5 31/54/5 30/55/5
f 35/56/1 32/57/1 31/58/1
f 29/59/6 36/60/6 33/61/6
f 38/62/4 40/63/4 37/64/4
f 44/65/2 42/66/2 41/67/2
f 41/68/3 38/69/3 37/70/3
f 42/71/5 39/72/5 38/73/5
f 43/74/1 40/75/1 39/76/1
f 37/77/6 44/78/6 41/79/6
f 46/80/4 48/81/4 45/82/4
f 52/83/2 50/84/2 49/85/2
f 49/86/3 46/87/3 45/88/3
f 50/89/5 47/90/5 46/91/5
f 47/92/1 52/93/1 48/94/1
f 49/95/6 48/96/6 52/97/6
f 54/98/4 56/99/4 53/100/4
f 60/101/2 58/102/2 57/103/2
f 57/104/3 54/105/3 53/106/3
f 58/107/5 55/108/5 54/109/5
f 59/110/1 56/111/1 55/112/1
f 53/113/6 60/114/6 57/115/6
f 2/1/1 4/116/1 3/2/1
f 6/4/2 8/117/2 7/5/2
f 10/7/3 12/118/3 11/8/3
f 13/10/4 14/119/4 15/11/4
f 17/13/2 20/120/2 19/14/2
f 17/16/3 18/121/3 14/17/3
f 18/19/5 19/122/5 15/20/5
f 19/22/1 20/123/1 16/23/1
f 13/25/6 16/124/6 20/26/6
f 22/28/4 23/125/4 24/29/4
f 28/31/2 27/126/2 26/32/2
f 25/34/3 26/127/3 22/35/3
f 26/37/5 27/128/5 23/38/5
f 23/40/1 27/129/1 28/41/1
f 21/43/6 24/130/6 28/44/6
f 30/45/4 31/131/4 32/46/4
f 36/48/2 35/132/2 34/49/2
f 33/51/3 34/133/3 30/52/3
f 34/53/5 35/134/5 31/54/5
f 35/56/1 36/135/1 32/57/1
f 29/59/6 32/136/6 36/60/6
f 38/62/4 39/137/4 40/63/4
f 44/65/2 43/138/2 42/66/2
f 41/68/3 42/139/3 38/69/3
f 42/71/5 43/140/5 39/72/5
f 43/74/1 44/141/1 40/75/1
f 37/77/6 40/142/6 44/78/6
f 46/80/4 47/143/4 48/81/4
f 52/83/2 51/144/2 50/84/2
f 49/86/3 50/145/3 46/87/3
f 50/89/5 51/146/5 47/90/5
f 47/92/1 51/147/1 52/93/1
f 49/95/6 45/148/6 48/96/6
f 54/98/4 55/149/4 56/99/4
f 60/101/2 59/150/2 58/102/2
f 57/104/3 58/151/3 54/105/3
f 58/107/5 59/152/5 55/108/5
f 59/110/1 60/153/1 56/111/1
f 53/113/6 56/154/6 60/114/6
